<?xml version="1.0" standalone="yes"?>

<svg version="1.1" viewBox="0.0 0.0 960.0 720.0" fill="none" stroke="none" stroke-linecap="square" stroke-miterlimit="10" xmlns="http://www.w3.org/2000/svg" xmlns:xlink="http://www.w3.org/1999/xlink"><clipPath id="p.0"><path d="m0 0l960.0 0l0 720.0l-960.0 0l0 -720.0z" clip-rule="nonzero"></path></clipPath><g clip-path="url(#p.0)"><path fill="#000000" fill-opacity="0.0" d="m0 0l960.0 0l0 720.0l-960.0 0z" fill-rule="nonzero"></path><path fill="#ff9900" d="m391.86102 173.2664l0 0c0 -49.31385 39.979492 -89.29062 89.29669 -89.29062l0 0c23.682953 0 46.395935 9.4073715 63.142273 26.15261c16.746399 16.74524 26.154419 39.456657 26.154419 63.13801l0 0c0 49.313843 -39.979492 89.2906 -89.29669 89.2906l0 0c-49.3172 0 -89.29669 -39.97676 -89.29669 -89.2906z" fill-rule="nonzero"></path><path fill="#ff9900" d="m616.1539 357.94638l0 0c0 -25.474548 20.67334 -46.125763 46.175232 -46.125763l0 0c12.246399 0 23.99121 4.8596497 32.650757 13.509918c8.659546 8.650269 13.524414 20.382538 13.524414 32.615845l0 0c0 25.474548 -20.67334 46.125763 -46.17517 46.125763l0 0c-25.501892 0 -46.175232 -20.651215 -46.175232 -46.125763z" fill-rule="nonzero"></path><path fill="#ff9900" d="m16.825935 546.73334l0 0c0 -49.313843 39.979492 -89.29062 89.29669 -89.29062l0 0c23.68296 0 46.395927 9.407379 63.142296 26.152618c16.746384 16.74524 26.154404 39.456665 26.154404 63.138l0 0c0 49.313843 -39.979492 89.29065 -89.2967 89.29065l0 0c-49.3172 0 -89.29669 -39.976807 -89.29669 -89.29065z" fill-rule="nonzero"></path><path fill="#ff9900" d="m244.017 357.94638l0 0c0 -25.474548 20.67334 -46.125763 46.17517 -46.125763l0 0c12.246429 0 23.991272 4.8596497 32.650787 13.509918c8.659515 8.650269 13.524384 20.382538 13.524384 32.615845l0 0c0 25.474548 -20.67331 46.125763 -46.17517 46.125763l0 0c-25.501831 0 -46.17517 -20.651215 -46.17517 -46.125763z" fill-rule="nonzero"></path><path fill="#ff9900" d="m764.5787 546.73334l0 0c0 -49.313843 39.979492 -89.29062 89.29669 -89.29062l0 0c23.682983 0 46.395935 9.407379 63.142334 26.152618c16.746338 16.74524 26.154358 39.456665 26.154358 63.138l0 0c0 49.313843 -39.979492 89.29065 -89.29669 89.29065l0 0c-49.3172 0 -89.29669 -39.976807 -89.29669 -89.29065z" fill-rule="nonzero"></path><path fill="#ff9900" d="m434.9494 546.68726l0 0c0 -25.474548 20.67334 -46.125763 46.17517 -46.125763l0 0c12.246429 0 23.991272 4.8596497 32.650818 13.509918c8.659485 8.650269 13.524353 20.382507 13.524353 32.615845l0 0c0 25.474548 -20.67331 46.125793 -46.17517 46.125793l0 0c-25.501831 0 -46.17517 -20.651245 -46.17517 -46.125793z" fill-rule="nonzero"></path></g></svg>

